<?xml version="1.0" standalone="no"?>
<!DOCTYPE svg PUBLIC "-//W3C//DTD SVG 20010904//EN"
 "http://www.w3.org/TR/2001/REC-SVG-20010904/DTD/svg10.dtd">
<svg version="1.0" xmlns="http://www.w3.org/2000/svg"
 width="184.000000pt" height="58.000000pt" viewBox="0 0 184.000000 58.000000"
 preserveAspectRatio="xMidYMid meet">

<g transform="translate(0.000000,58.000000) scale(0.100000,-0.100000)"
fill="#000000" stroke="none">
<path d="M174 434 c-87 -75 -163 -140 -168 -144 -5 -5 -5 -17 -1 -27 8 -18 11
-28 13 -50 1 -6 10 -14 20 -17 10 -4 37 -45 62 -96 24 -50 46 -90 48 -90 7 0
405 190 411 195 8 8 -94 215 -105 215 -7 0 -87 -36 -180 -80 -92 -44 -171 -77
-176 -72 -4 4 58 64 137 132 80 68 145 127 145 130 0 8 -34 40 -42 40 -2 0
-76 -61 -164 -136z m136 62 c0 -7 -8 -21 -19 -30 -17 -16 -19 -16 -25 0 -4 10
1 25 10 35 17 19 34 17 34 -5z m-110 -112 c-7 -7 -16 -14 -21 -14 -16 0 -9 42
9 56 15 11 17 10 20 -7 2 -11 -2 -27 -8 -35z m210 -4 c0 -5 -9 -19 -20 -30
-11 -11 -24 -20 -30 -20 -16 0 -12 18 10 40 22 22 40 26 40 10z m-300 -48 c0
-11 -9 -27 -20 -37 -19 -18 -20 -17 -20 6 0 25 16 49 32 49 4 0 8 -8 8 -18z
m180 -10 c0 -13 -24 -39 -42 -45 -13 -5 -15 -2 -11 11 3 9 10 23 16 30 11 13
37 17 37 4z m-136 -89 c-24 -18 -34 -16 -34 5 0 25 43 46 49 24 2 -9 -5 -22
-15 -29z m-74 17 c13 -8 13 -11 -2 -27 -21 -20 -45 -5 -35 21 7 18 16 20 37 6z
m280 -18 c0 -4 -13 -23 -29 -42 l-28 -34 -22 42 -21 42 50 0 c27 0 50 -4 50
-8z"/>
<path d="M673 460 c-32 -13 -46 -77 -41 -199 3 -94 6 -105 27 -122 26 -21 72
-25 102 -8 14 7 24 7 32 0 7 -5 37 -9 67 -8 52 2 55 3 61 32 5 21 7 24 8 9 2
-35 21 -42 106 -40 75 1 79 2 86 26 l6 25 4 -25 c3 -19 11 -26 32 -28 42 -5
54 12 64 91 l8 72 5 -80 5 -80 120 -1 c66 -1 125 2 130 6 6 5 17 5 25 0 19
-12 81 -12 100 0 9 5 19 5 26 -1 7 -6 32 -9 56 -7 40 3 43 5 46 36 2 22 -2 34
-12 38 -22 8 -23 109 -2 117 18 7 20 138 2 149 -19 13 -74 9 -88 -6 -11 -11
-16 -11 -36 2 -28 18 -92 10 -109 -15 -7 -9 -13 -12 -13 -6 0 6 -15 16 -32 22
-45 13 -255 11 -267 -3 -5 -6 -11 -24 -14 -41 -4 -28 -4 -27 -6 7 -1 45 -7 47
-124 46 -82 -1 -90 -3 -104 -25 -14 -21 -14 -30 0 -91 l15 -67 1 83 c1 75 3
82 21 82 19 0 20 -7 20 -161 l0 -160 -27 3 c-25 3 -29 9 -45 73 l-16 70 -1
-72 c-1 -66 -3 -73 -21 -73 -19 0 -20 7 -20 160 l0 160 24 0 c13 0 27 -6 29
-12 3 -8 6 -6 6 5 1 20 3 19 -69 22 -30 2 -60 -1 -66 -6 -7 -6 -22 -5 -38 1
-32 12 -53 12 -83 0z m81 -10 c24 -9 26 -14 26 -70 0 -57 -1 -60 -24 -60 -21
0 -25 5 -28 35 -2 20 -7 35 -13 35 -16 0 -13 -192 3 -197 8 -3 12 8 12 36 0
37 2 41 25 41 24 0 25 -3 25 -60 0 -65 -12 -80 -67 -80 -60 0 -64 11 -61 165
3 137 3 140 28 152 30 15 41 16 74 3z m869 -9 c5 -5 11 -27 14 -50 6 -40 5
-41 -26 -41 -27 0 -31 4 -31 26 0 28 -23 29 -28 1 -3 -16 10 -31 57 -66 19
-14 25 -29 29 -74 6 -75 -13 -107 -64 -107 -61 0 -74 13 -74 75 0 52 2 55 24
55 20 0 25 -6 28 -32 4 -45 28 -49 28 -4 0 28 -6 39 -27 53 -44 27 -53 43 -53
97 0 58 6 71 35 79 25 7 76 0 88 -12z m-773 -151 l0 -160 -25 0 -25 0 0 160 0
160 25 0 25 0 0 -160z m316 68 l8 -93 9 93 c9 88 10 92 33 92 29 0 30 -12 6
-190 l-17 -125 -33 -3 c-21 -2 -32 1 -33 10 -2 46 -27 228 -28 206 -1 -21 -6
-28 -21 -28 -18 0 -20 -7 -20 -65 0 -58 2 -65 20 -65 16 0 20 -7 20 -30 0 -29
-2 -30 -45 -30 l-45 0 0 160 0 160 69 0 69 0 8 -92z m174 67 c0 -18 -5 -25
-20 -25 -11 0 -20 -4 -20 -10 0 -5 9 -10 20 -10 16 0 20 -7 20 -30 0 -23 -4
-30 -20 -30 -18 0 -20 -7 -20 -65 0 -58 2 -65 20 -65 16 0 20 -7 20 -30 0 -29
-2 -30 -45 -30 l-45 0 0 160 0 160 45 0 c41 0 45 -2 45 -25z m138 13 c15 -15
16 -100 1 -115 -8 -8 -8 -17 0 -31 6 -11 11 -52 11 -91 l0 -71 -30 0 -30 0 0
75 c0 43 -4 75 -10 75 -6 0 -10 -32 -10 -75 l0 -75 -30 0 -30 0 0 160 0 160
58 0 c32 0 63 -5 70 -12z m262 -13 c0 -18 -5 -25 -20 -25 -11 0 -20 -4 -20
-10 0 -5 9 -10 20 -10 16 0 20 -7 20 -30 0 -23 -4 -30 -20 -30 -18 0 -20 -7
-20 -65 0 -58 2 -65 20 -65 16 0 20 -7 20 -30 0 -29 -2 -30 -45 -30 l-45 0 0
160 0 160 45 0 c41 0 45 -2 45 -25z m-989 -115 c38 0 40 -27 2 -32 -24 -3 -29
-9 -34 -43 -4 -24 -6 0 -6 60 0 55 2 81 4 58 4 -40 6 -43 34 -43z m889 9 c0
-18 -2 -20 -15 -9 -13 11 -13 15 -3 21 18 12 18 12 18 -12z m-119 -48 c-16 -4
-43 27 -35 40 2 4 14 -2 27 -14 17 -17 19 -23 8 -26z m-407 2 c10 -63 8 -83
-9 -77 -11 5 -15 21 -15 60 0 62 14 72 24 17z m226 -18 c0 -30 -4 -55 -10 -55
-5 0 -10 25 -10 55 0 30 5 55 10 55 6 0 10 -25 10 -55z"/>
<path d="M1070 390 c0 -5 9 -10 20 -10 11 0 20 5 20 10 0 6 -9 10 -20 10 -11
0 -20 -4 -20 -10z"/>
<path d="M1410 364 c0 -21 4 -33 10 -29 6 3 10 19 10 36 0 16 -4 29 -10 29 -5
0 -10 -16 -10 -36z"/>
</g>
</svg>
